<svg id="Capa_1" enable-background="new 0 0 512.005 512.005" height="512" viewBox="0 0 512.005 512.005" width="512" xmlns="http://www.w3.org/2000/svg"><g><path d="m512.004 169.635c0-10.448-8.501-18.949-18.949-18.949h-34.526c-1.145-2.677-3.802-4.553-6.897-4.553s-5.752 1.876-6.897 4.553h-46.009c-4.142 0-7.5 3.358-7.5 7.5s3.358 7.5 7.5 7.5h45.407v8.528c0 4.142 3.358 7.5 7.5 7.5s7.5-3.358 7.5-7.5v-8.528h33.923c2.177 0 3.949 1.771 3.949 3.949v259.951l-43.101-52.995c3.031-.963 5.229-3.798 5.229-7.148v-10c0-4.142-3.358-7.5-7.5-7.5s-7.5 3.358-7.5 7.5v5.134l-50.584-62.197c-3.614-4.444-8.972-6.993-14.701-6.993h-37.53c.912-3.342 1.397-6.804 1.397-10.314 0-21.62-17.589-39.209-39.209-39.209s-39.209 17.589-39.209 39.209c0 3.51.485 6.972 1.397 10.314h-102.817v-7.755c0-4.142-3.358-7.5-7.5-7.5s-7.5 3.358-7.5 7.5v7.755h-25.255v-10.528c0-4.142-3.358-7.5-7.5-7.5s-7.5 3.358-7.5 7.5v10.528h-88.647c-7.383 0-13.94 4.142-17.112 10.809-3.171 6.667-2.248 14.368 2.411 20.096l101.59 124.911c3.615 4.444 8.973 6.992 14.7 6.992h197.643c4.142 0 7.5-3.358 7.5-7.5s-3.358-7.5-7.5-7.5h-197.642c-1.194 0-2.311-.531-3.064-1.458l-101.589-124.909c-1.421-1.747-.825-3.511-.503-4.188s1.315-2.252 3.566-2.252h359.871c1.194 0 2.31.531 3.063 1.458l106.828 131.351h-133.502c-4.142 0-7.5 3.358-7.5 7.5s3.358 7.5 7.5 7.5h149.27c4.031.049 7.565-3.467 7.499-7.505zm-232.709 115.437c0-13.349 10.86-24.209 24.209-24.209s24.209 10.86 24.209 24.209c0 3.59-.802 7.102-2.32 10.314h-43.778c-1.518-3.212-2.32-6.723-2.32-10.314z"/><path d="m155.377 233.105c-4.142 0-7.5 3.358-7.5 7.5v18.811c0 4.142 3.358 7.5 7.5 7.5s7.5-3.358 7.5-7.5v-18.811c0-4.143-3.358-7.5-7.5-7.5z"/><path d="m162.877 193.578c0-4.142-3.358-7.5-7.5-7.5s-7.5 3.358-7.5 7.5v18.811c0 4.142 3.358 7.5 7.5 7.5s7.5-3.358 7.5-7.5z"/><path d="m162.877 146.551c0-4.142-3.358-7.5-7.5-7.5s-7.5 3.358-7.5 7.5v18.811c0 4.142 3.358 7.5 7.5 7.5s7.5-3.358 7.5-7.5z"/><path d="m155.377 78.809c4.142 0 7.5-3.358 7.5-7.5v-2.5h2.5c4.142 0 7.5-3.358 7.5-7.5s-3.358-7.5-7.5-7.5h-10c-4.142 0-7.5 3.358-7.5 7.5v10c0 4.142 3.358 7.5 7.5 7.5z"/><path d="m293.638 68.809h19.732c4.142 0 7.5-3.358 7.5-7.5s-3.358-7.5-7.5-7.5h-19.732c-4.142 0-7.5 3.358-7.5 7.5s3.358 7.5 7.5 7.5z"/><path d="m194.976 68.809h19.732c4.142 0 7.5-3.358 7.5-7.5s-3.358-7.5-7.5-7.5h-19.732c-4.142 0-7.5 3.358-7.5 7.5s3.358 7.5 7.5 7.5z"/><path d="m244.307 68.809h19.732c4.142 0 7.5-3.358 7.5-7.5s-3.358-7.5-7.5-7.5h-19.732c-4.142 0-7.5 3.358-7.5 7.5s3.358 7.5 7.5 7.5z"/><path d="m342.969 68.809h19.732c4.142 0 7.5-3.358 7.5-7.5s-3.358-7.5-7.5-7.5h-19.732c-4.142 0-7.5 3.358-7.5 7.5s3.358 7.5 7.5 7.5z"/><path d="m392.3 68.809h19.732c4.142 0 7.5-3.358 7.5-7.5s-3.358-7.5-7.5-7.5h-19.732c-4.142 0-7.5 3.358-7.5 7.5s3.358 7.5 7.5 7.5z"/><path d="m441.632 68.809h2.5v2.5c0 4.142 3.358 7.5 7.5 7.5s7.5-3.358 7.5-7.5v-10c0-4.142-3.358-7.5-7.5-7.5h-10c-4.142 0-7.5 3.358-7.5 7.5s3.357 7.5 7.5 7.5z"/><path d="m444.132 277.119c0 4.142 3.358 7.5 7.5 7.5s7.5-3.358 7.5-7.5v-20.581c0-4.142-3.358-7.5-7.5-7.5s-7.5 3.358-7.5 7.5z"/><path d="m451.632 233.167c4.142 0 7.5-3.358 7.5-7.5v-20.581c0-4.142-3.358-7.5-7.5-7.5s-7.5 3.358-7.5 7.5v20.581c0 4.142 3.357 7.5 7.5 7.5z"/><path d="m451.632 94.68c-4.142 0-7.5 3.358-7.5 7.5v20.581c0 4.142 3.358 7.5 7.5 7.5s7.5-3.358 7.5-7.5v-20.581c0-4.142-3.358-7.5-7.5-7.5z"/><path d="m444.132 328.571c0 4.142 3.358 7.5 7.5 7.5s7.5-3.358 7.5-7.5v-20.581c0-4.142-3.358-7.5-7.5-7.5s-7.5 3.358-7.5 7.5z"/><path d="m103.123 236.035c1.527 0 3.027-.114 4.499-.318v12.116c0 4.142 3.358 7.5 7.5 7.5s7.5-3.358 7.5-7.5v-18.308c7.903-5.939 13.024-15.389 13.024-26.013s-5.122-20.074-13.024-26.013v-46.59c0-2.177 1.771-3.949 3.949-3.949h105.322c1.508 16.544 15.451 29.549 32.382 29.549 8.92 0 17.011-3.612 22.893-9.447l13.074 13.074c3.579 3.579 8.337 5.55 13.399 5.55h48.057c4.142 0 7.5-3.358 7.5-7.5s-3.358-7.5-7.5-7.5h-48.057c-1.055 0-2.047-.411-2.792-1.156l-15.608-15.608c1.008-3.134 1.558-6.471 1.558-9.936 0-17.934-14.59-32.523-32.523-32.523-13.686 0-25.417 8.502-30.209 20.498h-71.188v-12.437c0-4.142-3.358-7.5-7.5-7.5s-7.5 3.358-7.5 7.5v12.436h-21.306c-10.449 0-18.949 8.5-18.949 18.949v40.397c-1.472-.205-2.972-.318-4.499-.318-17.934 0-32.523 14.59-32.523 32.523s14.587 32.524 32.521 32.524zm161.152-129.573c9.663 0 17.523 7.861 17.523 17.523s-7.861 17.523-17.523 17.523c-9.663 0-17.523-7.861-17.523-17.523s7.86-17.523 17.523-17.523zm-161.152 79.526c9.663 0 17.523 7.861 17.523 17.523s-7.861 17.523-17.523 17.523-17.523-7.861-17.523-17.523 7.86-17.523 17.523-17.523z"/><path d="m351.149 192.52c-2.929-2.929-7.678-2.929-10.606 0l-5.331 5.331-5.331-5.331c-2.929-2.929-7.678-2.929-10.606 0-2.929 2.929-2.929 7.678 0 10.606l5.331 5.331-5.331 5.331c-2.929 2.929-2.929 7.678 0 10.606 1.464 1.464 3.384 2.197 5.303 2.197s3.839-.732 5.303-2.197l5.331-5.331 5.331 5.331c1.464 1.464 3.384 2.197 5.303 2.197s3.839-.732 5.303-2.197c2.929-2.929 2.929-7.678 0-10.606l-5.331-5.331 5.331-5.331c2.929-2.928 2.929-7.677 0-10.606z"/><path d="m77.201 92.288c1.464 1.464 3.384 2.197 5.303 2.197s3.839-.732 5.303-2.197l5.331-5.331 5.331 5.331c1.464 1.464 3.384 2.197 5.303 2.197s3.839-.732 5.303-2.197c2.929-2.929 2.929-7.678 0-10.606l-5.331-5.331 5.331-5.331c2.929-2.929 2.929-7.678 0-10.606-2.929-2.929-7.678-2.929-10.606 0l-5.331 5.331-5.331-5.331c-2.929-2.929-7.678-2.929-10.606 0-2.929 2.929-2.929 7.678 0 10.606l5.331 5.331-5.331 5.331c-2.929 2.928-2.929 7.677 0 10.606z"/><path d="m428.755 417.566c2.124-4.286 1.644-9.313-1.253-13.121l-25.889-34.017c-3.289-4.322-8.495-6.902-13.926-6.902h-101.018c-4.784 0-9.076 2.663-11.2 6.95-2.124 4.286-1.644 9.314 1.253 13.12l25.888 34.016c3.289 4.322 8.495 6.902 13.926 6.902h101.018c4.785.002 9.077-2.661 11.201-6.948zm-112.218-8.05c-.776 0-1.52-.368-1.989-.986l-22.833-30.002h95.974c.776 0 1.52.369 1.989.986l22.833 30.002z"/><path d="m202.618 417.014c0 4.142 3.358 7.5 7.5 7.5h45.887c4.142 0 7.5-3.358 7.5-7.5s-3.358-7.5-7.5-7.5h-45.887c-4.142 0-7.5 3.358-7.5 7.5z"/><path d="m239.259 399.638c4.142 0 7.5-3.358 7.5-7.5s-3.358-7.5-7.5-7.5h-19.477c-4.142 0-7.5 3.358-7.5 7.5s3.358 7.5 7.5 7.5z"/></g></svg>